<?xml version="1.0" encoding="UTF-8"?>
<svg version="1.1" xmlns="http://www.w3.org/2000/svg" width="2100" height="1500">
<path d="M0 0 C5.3161319 -0.07501597 10.63194537 -0.12900455 15.94848633 -0.16479492 C17.75127541 -0.17973916 19.55402906 -0.20010204 21.35668945 -0.22631836 C37.61997068 -0.45665086 52.66529019 0.06363396 65.25 11.6875 C76.71663532 23.88362305 77.64977774 39.62724127 77.28515625 55.5390625 C76.74312591 68.8607621 72.5989014 79.12150321 62.9375 88.34375 C60.77215934 90.19476702 58.47912848 91.60549023 56 93 C56 93.66 56 94.32 56 95 C57.81704071 96.41816491 57.81704071 96.41816491 60.125 97.8125 C60.94871094 98.35261719 61.77242187 98.89273438 62.62109375 99.44921875 C63.40613281 99.96097656 64.19117188 100.47273437 65 101 C73.16571866 106.44381244 76.77431908 115.66810915 79 125 C79.37360338 127.85071121 79.55495998 130.69131697 79.6875 133.5625 C79.74393677 134.74223389 79.74393677 134.74223389 79.80151367 135.94580078 C80.47460366 152.67980132 78.67490057 167.18456741 67 180 C57.37830204 188.49483243 45.12849685 190.14898706 32.6875 190.16796875 C31.91494873 190.17129715 31.14239746 190.17462555 30.34643555 190.17805481 C28.72282501 190.1830881 27.09920426 190.18546426 25.47558594 190.18530273 C23.00698719 190.1874938 20.5388327 190.2057001 18.0703125 190.22460938 C16.48437651 190.22754325 14.89843842 190.22952809 13.3125 190.23046875 C12.58313232 190.23765427 11.85376465 190.24483978 11.10229492 190.25224304 C6.39633204 190.23148903 2.48248186 189.35797907 -2 188 C-2.04668792 164.07847181 -2.0819731 140.15695044 -2.10362434 116.23538589 C-2.11394388 105.12858814 -2.12801715 94.02181867 -2.15087891 82.91503906 C-2.17079204 73.2361651 -2.18371151 63.55731161 -2.18817699 53.87841773 C-2.19078789 48.75190938 -2.19693871 43.62545963 -2.21146011 38.49897003 C-2.22501122 33.67605692 -2.22922765 28.85322667 -2.22621536 24.03029633 C-2.22676663 22.25815888 -2.23075876 20.48601872 -2.23841095 18.71389771 C-2.24833355 16.29795249 -2.24597876 13.88232184 -2.24050903 11.46636963 C-2.24633472 10.76208651 -2.2521604 10.05780339 -2.25816262 9.33217835 C-2.23597932 5.7172636 -1.97600544 3.07615184 0 0 Z M26 22 C26 42.46 26 62.92 26 84 C37.86004925 82.28642201 37.86004925 82.28642201 46.1875 76 C53.47583402 63.93655059 52.13712027 47.90908303 48.94921875 34.76953125 C47.43251789 30.34426002 45.78912025 26.89456012 41.5 24.75 C36.08569085 22.40563069 36.08569085 22.40563069 26 22 Z M26 107 C25.90618698 108.84118029 25.88256046 110.68597641 25.88647461 112.52954102 C25.88655014 113.71068985 25.88662567 114.89183868 25.88670349 116.10877991 C25.89186478 117.3941716 25.89702606 118.67956329 25.90234375 120.00390625 C25.9037587 121.31205795 25.90517365 122.62020966 25.90663147 123.96800232 C25.9104559 127.45162859 25.92028554 130.93521339 25.93133545 134.41882324 C25.94155118 137.97126708 25.94612944 141.52371759 25.95117188 145.07617188 C25.96190788 152.05079832 25.9789834 159.02539717 26 166 C30.97355532 167.65785177 35.5095496 166.08356438 40.2265625 164.03125 C45.46229359 161.129047 48.17575172 157.69948755 50 152 C52.69543896 139.28259335 51.82231358 125.40908987 46.4375 113.5625 C42.51448495 109.43830469 37.50966688 106.55548684 31.828125 105.65625 C28.6321904 105.48145331 28.6321904 105.48145331 26 107 Z " fill="#A79208" transform="translate(467,607)"/>
<path d="M0 0 C1.68477344 1.31037934 3.35648543 2.63823078 5 4 C5.99 4 6.98 4 8 4 C8.33 2.35 8.66 0.7 9 -1 C17.58 -1 26.16 -1 35 -1 C35 41.9 35 84.8 35 129 C30.58709317 129.88258137 26.66422251 130.11484601 22.21484375 130.0625 C21.47673965 130.05871338 20.73863556 130.05492676 19.97816467 130.05102539 C17.6312156 130.0388619 15.28439252 130.02023391 12.9375 130 C9.84245109 129.97337592 6.74746427 129.95339919 3.65234375 129.9375 C2.94496567 129.92920166 2.23758759 129.92090332 1.5087738 129.91235352 C-1.83336363 129.89573391 -4.79462031 130.04421072 -8 131 C-18.39301935 131.71486376 -25.54139008 131.05872235 -33.6875 124.4375 C-45.3078848 113.39713441 -46.48424132 96.73365914 -46.94580078 81.48535156 C-48.26139194 21.15779295 -48.26139194 21.15779295 -35.4375 5.0625 C-26.15913726 -4.50741943 -11.68015925 -5.73762209 0 0 Z M-13 23 C-16.51217013 29.15816316 -18.10710056 35.16599938 -18.16113281 42.24243164 C-18.17074036 43.26442154 -18.1803479 44.28641144 -18.19024658 45.33937073 C-18.19449646 46.43522995 -18.19874634 47.53108917 -18.203125 48.66015625 C-18.20882507 49.80101181 -18.21452515 50.94186737 -18.22039795 52.11729431 C-18.22983664 54.532207 -18.23637743 56.9471325 -18.24023438 59.36206055 C-18.24990054 63.02481126 -18.28091932 66.68699118 -18.3125 70.34960938 C-18.31903467 72.70312169 -18.32428331 75.056638 -18.328125 77.41015625 C-18.3404718 78.49184586 -18.3528186 79.57353546 -18.36553955 80.68800354 C-18.34155863 89.03075022 -17.82257302 98.69539481 -12.75 105.6875 C-9.32103002 108.57095203 -7.47127766 109.15688694 -3 109 C2.04059019 106.57663933 3.86552341 104.05993087 6 99 C9.3035324 86.7401896 9.29199319 73.73240556 9.3125 61.125 C9.31774185 60.09214371 9.31774185 60.09214371 9.3230896 59.03842163 C9.60869826 39.69898943 9.60869826 39.69898943 3 22 C-2.13386169 18.57742554 -8.41300532 18.79525488 -13 23 Z " fill="#AA9404" transform="translate(865,667)"/>
<path d="M0 0 C0.70125 0.556875 1.4025 1.11375 2.125 1.6875 C4.7579423 3.53055961 6.86963644 3.21343388 10 3 C10.33 1.68 10.66 0.36 11 -1 C14.97915159 -1.02886984 18.95827653 -1.04675406 22.9375 -1.0625 C24.07380859 -1.07087891 25.21011719 -1.07925781 26.38085938 -1.08789062 C27.46044922 -1.09111328 28.54003906 -1.09433594 29.65234375 -1.09765625 C31.15269165 -1.10551147 31.15269165 -1.10551147 32.68334961 -1.11352539 C35 -1 35 -1 36 0 C36.09611419 1.6575762 36.12187755 3.31926986 36.12025452 4.97962952 C36.12231651 6.59720909 36.12231651 6.59720909 36.12442017 8.24746704 C36.11902725 10.03741592 36.11902725 10.03741592 36.11352539 11.86352539 C36.11367142 13.11212845 36.11381744 14.36073151 36.1139679 15.64717102 C36.11338891 19.08090994 36.10835955 22.51458938 36.10139394 25.94831777 C36.09515998 29.53312459 36.09455657 33.11793213 36.09336853 36.70274353 C36.09025534 43.49550045 36.08204212 50.28824135 36.07201904 57.08099121 C36.06085753 64.81242494 36.05534736 72.54385942 36.05032361 80.27529919 C36.03985949 96.18354208 36.02226029 112.09176898 36 128 C31.54816794 129.93725015 27.79932878 130.24905516 22.99609375 130.16015625 C21.85564354 130.1523539 21.85564354 130.1523539 20.69215393 130.14439392 C18.27373709 130.12665447 15.85575299 130.09549479 13.4375 130.0625 C11.01571926 130.03482388 8.59400075 130.01011625 6.1721344 129.99131775 C4.66844724 129.97912281 3.16479139 129.96158073 1.66123962 129.93800354 C-1.72996581 129.90563742 -4.75053531 130.00291312 -8 131 C-18.03594164 131.81035554 -24.43723853 130.40748229 -32.1875 123.9375 C-43.60704445 113.02588008 -45.183217 97.67887014 -45.67089844 82.57226562 C-45.69700195 81.26966797 -45.72310547 79.96707031 -45.75 78.625 C-45.7667981 77.93978271 -45.78359619 77.25456543 -45.80090332 76.54858398 C-47.18086071 20.07798735 -47.18086071 20.07798735 -32.5078125 4.40625 C-23.27378888 -4.27458326 -11.24536062 -5.23490925 0 0 Z M-11 21 C-17.76037255 28.67393641 -17.29879936 38.28657941 -17.265625 47.93359375 C-17.26753845 49.16610367 -17.2694519 50.39861359 -17.27142334 51.66847229 C-17.27278001 54.26636968 -17.26911986 56.86427397 -17.26074219 59.4621582 C-17.25004488 63.42089195 -17.26065078 67.37917098 -17.2734375 71.33789062 C-17.27211564 73.86979266 -17.26955268 76.40169442 -17.265625 78.93359375 C-17.26967346 80.10885117 -17.27372192 81.28410858 -17.27789307 82.49497986 C-17.22680827 91.52739936 -16.985759 99.78187885 -11 107 C-7.794598 109.35062814 -4.90117562 109.39807915 -1 109 C3.71101797 107.02794597 5.03820242 104.60733158 7 100 C7.72446953 97.14917904 8.19042033 94.28265481 8.625 91.375 C8.74979736 90.57594238 8.87459473 89.77688477 9.00317383 88.95361328 C9.96094053 82.64773325 10.72636996 76.37640906 11 70 C11.05285156 68.87464844 11.10570312 67.74929688 11.16015625 66.58984375 C11.36482011 57.98506332 10.69486265 49.55300138 9.75 41 C9.64075195 39.9375708 9.53150391 38.8751416 9.41894531 37.78051758 C8.64974842 31.38618984 7.47458549 26.47008137 4 21 C-1.09546436 18.32449005 -5.77959066 18.59058031 -11 21 Z " fill="#A69209" transform="translate(1304,667)"/>
<path d="M0 0 C10.3831573 8.87767709 14.28902365 17.96024054 17.17578125 31.046875 C17.36398437 31.88992188 17.5521875 32.73296875 17.74609375 33.6015625 C21.97318785 57.65757075 22.68374727 92.77484791 8.8671875 113.86328125 C3.0042091 121.43234574 -4.50254996 125.97909682 -13.82421875 128.046875 C-26.62675907 128.82086406 -38.40760737 128.56955704 -48.82421875 120.046875 C-60.77730972 108.73844512 -64.72558396 91.88009112 -65.33149719 75.90821838 C-65.41215923 72.02609491 -65.42591856 68.14747055 -65.40063477 64.26464844 C-65.38679575 61.31329676 -65.42095492 58.36514787 -65.45898438 55.4140625 C-65.52755358 38.31907372 -64.22892706 18.12215702 -51.9453125 5.046875 C-38.35689963 -7.71719188 -15.77097341 -10.90662061 0 0 Z M-32.36474609 21.78393555 C-38.44720705 31.2149042 -37.29071566 45.2189714 -37.21533203 56.00366211 C-37.19934341 58.71324811 -37.21521242 61.42132023 -37.234375 64.13085938 C-37.2459035 73.04228503 -36.82848119 81.74842565 -35.48828125 90.56640625 C-35.37205414 91.34843918 -35.25582703 92.13047211 -35.13607788 92.936203 C-34.21155515 98.38608245 -32.51651471 103.69523503 -27.82421875 107.046875 C-23.93909362 108.07313447 -21.50436885 108.24691915 -17.63671875 107.109375 C-11.47426576 102.5902428 -10.36344776 95.94556528 -9.22558594 88.71948242 C-8.50449583 82.12133245 -8.52936903 75.52631179 -8.56347656 68.89501953 C-8.574111 66.44668282 -8.56357131 63.99909453 -8.55078125 61.55078125 C-8.54313664 53.37602443 -8.84625558 45.30635607 -9.7265625 37.17578125 C-9.80561829 36.43770233 -9.88467407 35.69962341 -9.96612549 34.93917847 C-10.76815254 28.2499625 -11.99977348 22.49968273 -17.19921875 17.984375 C-23.34403799 15.7897967 -28.00903891 16.87254781 -32.36474609 21.78393555 Z " fill="#AA9504" transform="translate(1048.82421875,669.953125)"/>
<path d="M0 0 C10.88514003 10.51206063 10.37379318 25.34970811 10.71807861 39.60357666 C10.75570641 43.59269218 10.76443578 47.58109085 10.7578125 51.5703125 C10.75848966 53.04556291 10.75946307 54.5208132 10.76071167 55.99606323 C10.76217209 59.06672238 10.76009001 62.13735213 10.75537109 65.20800781 C10.74970442 69.07703121 10.75302919 72.94598531 10.75882339 76.81500626 C10.77943861 93.15113658 10.66318823 109.43932978 9.625 125.75 C6.81080034 126.48937417 4.35189568 126.87816752 1.4375 126.8828125 C0.65632813 126.88410156 -0.12484375 126.88539063 -0.9296875 126.88671875 C-1.73664063 126.88285156 -2.54359375 126.87898437 -3.375 126.875 C-4.18195313 126.87886719 -4.98890625 126.88273438 -5.8203125 126.88671875 C-6.60148437 126.88542969 -7.38265625 126.88414062 -8.1875 126.8828125 C-8.89519531 126.88168457 -9.60289063 126.88055664 -10.33203125 126.87939453 C-12.45419467 126.74498409 -14.32310076 126.28909512 -16.375 125.75 C-16.38086624 124.55698273 -16.38673248 123.36396545 -16.39277649 122.13479614 C-16.45010933 110.86521318 -16.52292608 99.59582123 -16.61071491 88.32643318 C-16.6553503 82.53339161 -16.69462155 76.74041927 -16.72143555 70.94726562 C-16.74753654 65.35150829 -16.78798716 59.7560183 -16.83818626 54.16042709 C-16.85480904 52.03075371 -16.86635178 49.90103413 -16.87261391 47.77130508 C-16.88230495 44.7771051 -16.910424 41.78358209 -16.94262695 38.78955078 C-16.94119186 37.9184819 -16.93975677 37.04741302 -16.9382782 36.14994812 C-17.02890794 30.15102374 -17.72867644 24.20724044 -20.375 18.75 C-24.39443779 15.19287732 -28.10597167 14.63087414 -33.375 14.75 C-36.66848985 15.68211977 -38.50650957 16.50988176 -40.49325943 19.34676361 C-43.46775344 24.91637463 -43.9555917 29.58726974 -43.92089844 35.83789062 C-43.93123611 36.81441589 -43.94157379 37.79094116 -43.95222473 38.79705811 C-43.98154276 42.00029259 -43.98314961 45.20289217 -43.984375 48.40625 C-43.99936403 50.636853 -44.01609269 52.86744493 -44.03448486 55.09802246 C-44.07808909 60.95052616 -44.09814227 66.80288014 -44.11322021 72.65551758 C-44.13281615 78.63501817 -44.17478344 84.61435769 -44.21484375 90.59375 C-44.29007097 102.31245023 -44.3404079 114.03111428 -44.375 125.75 C-48.13098459 127.6279923 -52.67973982 126.93475762 -56.8125 126.9375 C-57.77994141 126.94974609 -58.74738281 126.96199219 -59.74414062 126.97460938 C-61.13729492 126.97750977 -61.13729492 126.97750977 -62.55859375 126.98046875 C-63.83561157 126.98663208 -63.83561157 126.98663208 -65.13842773 126.99291992 C-67.375 126.75 -67.375 126.75 -70.375 124.75 C-70.74414349 122.50488091 -70.74414349 122.50488091 -70.73576355 119.65011597 C-70.73988754 118.57035492 -70.74401154 117.49059387 -70.7482605 116.37811279 C-70.73747467 115.18840881 -70.72668884 113.99870483 -70.71557617 112.77294922 C-70.71601425 111.52420013 -70.71645233 110.27545105 -70.71690369 108.98886108 C-70.71516847 105.55912575 -70.70009618 102.12992836 -70.67918181 98.7002883 C-70.66046141 95.11817087 -70.65866825 91.53604673 -70.65510559 87.95388794 C-70.64577144 81.16818579 -70.62113925 74.38262818 -70.59105712 67.59698975 C-70.55755561 59.87280602 -70.54103782 52.14861547 -70.52597082 44.4243772 C-70.49459079 28.53283435 -70.44180383 12.64143579 -70.375 -3.25 C-67.81776771 -4.52861615 -66.00762898 -4.36336609 -63.1484375 -4.34765625 C-62.1171875 -4.34443359 -61.0859375 -4.34121094 -60.0234375 -4.33789062 C-58.40308594 -4.32532227 -58.40308594 -4.32532227 -56.75 -4.3125 C-55.11804687 -4.30573242 -55.11804687 -4.30573242 -53.453125 -4.29882812 C-50.76036211 -4.28701776 -48.06770812 -4.27054778 -45.375 -4.25 C-45.045 -2.93 -44.715 -1.61 -44.375 -0.25 C-39.2523295 -0.67688921 -35.73310372 -1.94210568 -31.203125 -4.328125 C-21.60302374 -9.1692017 -8.03930742 -6.62498482 0 0 Z " fill="#A89307" transform="translate(1590.375,670.25)"/>
<path d="M0 0 C2.5576512 2.22020996 4.87994565 4.51607104 7.16796875 7.01171875 C8.06322266 7.97271484 8.06322266 7.97271484 8.9765625 8.953125 C22.56023414 25.17900708 22.73421535 55.06472687 21.16796875 75.01171875 C19.23857024 92.37630538 16.63638543 109.66977885 2.41796875 121.32421875 C-8.76855324 128.95912634 -21.25321285 129.63871715 -34.3046875 127.421875 C-43.3523607 124.8885265 -49.86574944 119.657028 -54.90234375 111.76953125 C-61.56915401 99.24485423 -63.94780224 85.86978435 -64.03515625 71.8046875 C-64.04217056 71.04557068 -64.04918488 70.28645386 -64.05641174 69.5043335 C-64.07381331 67.06923427 -64.08026288 64.63437785 -64.08203125 62.19921875 C-64.08270599 61.36979767 -64.08338074 60.54037659 -64.08407593 59.68582153 C-64.03228109 19.69004332 -64.03228109 19.69004332 -50.515625 5.62109375 C-37.17935794 -7.12726363 -15.80531694 -11.09642252 0 0 Z M-28.83203125 18.01171875 C-36.21014554 25.60063631 -35.98606599 36.12765158 -36 46.09375 C-36.0033284 46.94740646 -36.0066568 47.80106293 -36.01008606 48.68058777 C-36.01512412 50.48326077 -36.01749536 52.28594301 -36.01733398 54.08862305 C-36.01949465 56.77865049 -36.03761201 59.46824942 -36.05664062 62.15820312 C-36.08666378 70.96408552 -35.85573116 79.69219032 -35.0078125 88.4609375 C-34.93845993 89.23500443 -34.86910736 90.00907135 -34.7976532 90.80659485 C-34.17822501 96.46371056 -32.56086873 100.72718351 -29.08203125 105.32421875 C-25.95485351 107.66960206 -23.71917989 107.94469895 -19.83203125 108.01171875 C-16.6347525 107.07134265 -14.64572305 106.21628203 -12.74389648 103.40087891 C-10.04208933 98.11863352 -8.83144665 93.18947355 -8.08203125 87.32421875 C-7.96134277 86.40922607 -7.8406543 85.4942334 -7.71630859 84.55151367 C-5.95159957 69.97082379 -6.55262902 55.77321682 -8.14453125 41.19921875 C-8.26199707 40.10778564 -8.37946289 39.01635254 -8.50048828 37.8918457 C-9.34858346 30.90507948 -10.38825588 24.41554873 -14.58203125 18.57421875 C-19.14859119 15.40299657 -24.08037105 15.18640728 -28.83203125 18.01171875 Z " fill="#AA9404" transform="translate(1691.83203125,669.98828125)"/>
<path d="M0 0 C0.94673584 0.00410889 1.89347168 0.00821777 2.86889648 0.01245117 C3.89563477 0.01438477 4.92237305 0.01631836 5.98022461 0.01831055 C7.05594727 0.03055664 8.13166992 0.04280273 9.23999023 0.05541992 C10.31958008 0.05606445 11.39916992 0.05670898 12.51147461 0.05737305 C20.53734426 0.10277394 20.53734426 0.10277394 21.67749023 1.24291992 C21.78682463 4.11689413 21.83172577 6.96771518 21.83520508 9.8425293 C21.84282616 11.19631683 21.84282616 11.19631683 21.8506012 12.57745361 C21.86133243 14.54561887 21.86994172 16.51379653 21.87672043 18.48197937 C21.88848349 21.60145483 21.90793288 24.72079021 21.92984009 27.84020996 C21.99152001 36.71268004 22.04538863 45.58513894 22.07885742 54.45776367 C22.09986275 59.87959175 22.13522225 65.30116984 22.17961502 70.72285461 C22.1937389 72.78637232 22.20248927 74.84993433 22.2056694 76.91349792 C22.21060586 79.81198026 22.23383721 82.70980642 22.26098633 85.6081543 C22.25798019 86.45319519 22.25497406 87.29823608 22.25187683 88.16888428 C22.3447312 94.88086875 23.60369338 101.05246322 27.30249023 106.74291992 C30.93747986 109.03870284 34.41938425 109.41294846 38.67749023 109.24291992 C43.06946371 107.94159445 44.28234974 106.96507323 46.48999023 102.93041992 C48.52330853 96.61643152 48.83411102 90.70068832 48.86694336 84.13232422 C48.87523666 83.23572586 48.88352997 82.3391275 48.89207458 81.4153595 C48.90941344 79.4772838 48.92459681 77.53918787 48.93785095 75.60107994 C48.95894072 72.53801984 48.98595413 69.47506247 49.01452637 66.4120636 C49.08422585 58.81128069 49.1439009 51.2104254 49.20355225 43.60955811 C49.25439267 37.17462948 49.30915988 30.73975866 49.36936951 24.30491066 C49.39601962 21.27968157 49.41678118 18.25444725 49.43737793 15.22917175 C49.45397056 13.38829282 49.47084147 11.54741637 49.48803711 9.70654297 C49.49222153 8.85929657 49.49640594 8.01205017 49.50071716 7.13912964 C49.56363529 1.35677486 49.56363529 1.35677486 50.67749023 0.24291992 C54.48266291 -0.03665416 58.3007637 0.01113712 62.11499023 -0.00708008 C63.19071289 -0.02770508 64.26643555 -0.04833008 65.37475586 -0.06958008 C66.40149414 -0.07473633 67.42823242 -0.07989258 68.48608398 -0.08520508 C69.43281982 -0.09455078 70.37955566 -0.10389648 71.35498047 -0.11352539 C72.12140869 0.00410156 72.88783691 0.12172852 73.67749023 0.24291992 C77.38549677 5.80492973 76.83547832 12.56908224 76.87036133 19.0612793 C76.88262756 20.34340302 76.88262756 20.34340302 76.8951416 21.65142822 C76.91982701 24.46316866 76.93647165 27.27485905 76.95092773 30.08666992 C76.95625141 31.05445877 76.96157509 32.02224762 76.96706009 33.0193634 C76.99372354 38.14595749 77.01311673 43.27252784 77.02758789 48.39916992 C77.04089487 52.61423597 77.06869791 56.82881424 77.10961914 61.04370117 C77.15928338 66.16118738 77.1837499 71.27823348 77.19081497 76.39595032 C77.19747205 78.33178015 77.21254661 80.26760232 77.23670578 82.20329285 C77.40949907 96.8899814 76.49349546 112.95460005 65.67749023 124.24291992 C56.58481087 131.41155109 47.07772227 132.62377242 35.80249023 132.55541992 C34.34613159 132.54696045 34.34613159 132.54696045 32.86035156 132.53833008 C22.19765128 132.35734819 12.76713186 130.71755955 4.67749023 123.24291992 C-2.62793649 114.13111854 -4.79280408 103.2850493 -4.69482422 91.84619141 C-4.69847488 90.87244064 -4.70212555 89.89868988 -4.70588684 88.89543152 C-4.71390959 85.71810778 -4.70046054 82.54130709 -4.68579102 79.36401367 C-4.68527179 77.14250183 -4.6857919 74.92098953 -4.68730164 72.69947815 C-4.68721231 68.06569477 -4.6768567 63.43208682 -4.65869141 58.79833984 C-4.63588604 52.84961663 -4.63548586 46.90114665 -4.64220905 40.95239162 C-4.64554204 36.37575514 -4.63893361 31.79917682 -4.62907982 27.22255135 C-4.62522488 25.02762213 -4.62408081 22.83268647 -4.62566566 20.63775444 C-4.62603479 17.58340853 -4.61346299 14.52939396 -4.59716797 11.47509766 C-4.59964539 10.56449585 -4.6021228 9.65389404 -4.60467529 8.71569824 C-4.53417987 0.47424671 -4.53417987 0.47424671 0 0 Z " fill="#A99405" transform="translate(577.322509765625,665.757080078125)"/>
<path d="M0 0 C1.62711914 -0.00483398 1.62711914 -0.00483398 3.28710938 -0.00976562 C18.21493448 0.08993448 18.21493448 0.08993448 21.4375 3.3125 C21.52450342 4.94722882 21.54451063 6.58564055 21.53515625 8.22265625 C21.53032227 9.70668945 21.53032227 9.70668945 21.52539062 11.22070312 C21.51282227 12.78208008 21.51282227 12.78208008 21.5 14.375 C21.49548828 15.41978516 21.49097656 16.46457031 21.48632812 17.54101562 C21.47449913 20.1315666 21.45801689 22.72200559 21.4375 25.3125 C18.07146291 26.43451236 17.69855558 26.13599888 14.4375 25.3125 C3.32162064 24.50365223 -5.67971708 24.43430473 -14.54296875 32.00390625 C-27.56160257 45.30012288 -28.71117705 67.14060295 -28.73046875 84.75 C-28.73379715 85.82894531 -28.73712555 86.90789062 -28.74055481 88.01953125 C-28.74559529 90.29540586 -28.74796403 92.57128779 -28.74780273 94.84716797 C-28.74997593 98.27454296 -28.76812625 101.70158861 -28.78710938 105.12890625 C-29.2770495 135.04176918 -29.2770495 135.04176918 -16.5625 161.3125 C-11.9913833 165.80669887 -6.91217233 167.78172244 -0.5625 168.3125 C6.33197954 168.22154381 12.82452996 167.22008751 19.4375 165.3125 C21.15956188 168.30376319 21.67929923 170.41935713 21.6328125 173.859375 C21.62636719 174.70371094 21.61992188 175.54804687 21.61328125 176.41796875 C21.58814453 177.72701172 21.58814453 177.72701172 21.5625 179.0625 C21.55347656 179.95066406 21.54445313 180.83882812 21.53515625 181.75390625 C21.51164577 183.94038058 21.47878499 186.12630094 21.4375 188.3125 C13.55623794 192.52948697 6.58865311 194.69146073 -2.375 194.625 C-3.17107666 194.61936035 -3.96715332 194.6137207 -4.78735352 194.60791016 C-10.80796732 194.48379913 -16.02418555 193.80663819 -21.5625 191.3125 C-22.4390625 190.92191406 -23.315625 190.53132812 -24.21875 190.12890625 C-38.2632916 183.16581189 -47.26740269 172.43449281 -52.69140625 157.91796875 C-58.28876431 141.17609509 -58.89818891 124.01592143 -58.82324219 106.53027344 C-58.81256286 103.5798667 -58.82318225 100.63007544 -58.8359375 97.6796875 C-58.84906377 81.30262561 -58.43981071 64.46709552 -54.4375 48.5 C-54.22432129 47.64092041 -54.01114258 46.78184082 -53.79150391 45.89672852 C-49.14126431 28.36151784 -40.05126572 14.37888001 -24.4609375 4.71484375 C-16.21630751 0.72586509 -9.14016665 -0.1362577 0 0 Z " fill="#A69209" transform="translate(1210.5625,603.6875)"/>
<path d="M0 0 C0.73347656 -0.00773438 1.46695313 -0.01546875 2.22265625 -0.0234375 C12.26248317 0.01248317 12.26248317 0.01248317 15.5 3.25 C15.58685603 4.81172745 15.60702219 6.37729344 15.59765625 7.94140625 C15.59443359 8.88564453 15.59121094 9.82988281 15.58789062 10.80273438 C15.57532227 12.29256836 15.57532227 12.29256836 15.5625 13.8125 C15.55798828 14.80958984 15.55347656 15.80667969 15.54882812 16.83398438 C15.53700007 19.30604849 15.52051849 21.77799518 15.5 24.25 C14.53578125 24.19199219 13.5715625 24.13398437 12.578125 24.07421875 C11.31484375 24.02910156 10.0515625 23.98398437 8.75 23.9375 C7.49703125 23.87949219 6.2440625 23.82148437 4.953125 23.76171875 C1.36493966 23.92205888 1.36493966 23.92205888 -0.890625 26.58203125 C-3.52985469 30.95725911 -3.6350414 34.58504091 -3.59765625 39.54296875 C-3.59553383 40.60201164 -3.59553383 40.60201164 -3.59336853 41.68244934 C-3.58777764 43.93417626 -3.57522688 46.18580321 -3.5625 48.4375 C-3.55748382 49.96549335 -3.55292112 51.49348827 -3.54882812 53.02148438 C-3.5386627 56.76439228 -3.51908569 60.50708443 -3.5 64.25 C2.44 64.58 8.38 64.91 14.5 65.25 C15.63841369 74.35730949 15.63841369 74.35730949 15.625 78.5625 C15.62886719 79.79419922 15.62886719 79.79419922 15.6328125 81.05078125 C15.5 83.25 15.5 83.25 14.5 86.25 C10.13197616 87.9930594 4.93891074 87.67983426 0.30078125 87.96875 C-2.4027875 87.94181513 -2.4027875 87.94181513 -3.5 89.25 C-3.60746312 90.62829815 -3.64679331 92.01199051 -3.65821838 93.39442444 C-3.67290161 94.73433693 -3.67290161 94.73433693 -3.68788147 96.10131836 C-3.69363693 97.08890137 -3.6993924 98.07648438 -3.70532227 99.09399414 C-3.71522186 100.12801865 -3.72512146 101.16204315 -3.73532104 102.22740173 C-3.76704213 105.66329619 -3.79173524 109.09920451 -3.81640625 112.53515625 C-3.83696663 114.910277 -3.85796284 117.28539402 -3.87937927 119.6605072 C-3.93469461 125.92572005 -3.98406202 132.19096643 -4.03222656 138.45623779 C-4.08237268 144.84390259 -4.13809462 151.23151842 -4.19335938 157.61914062 C-4.30105661 170.16271834 -4.4026649 182.70633782 -4.5 195.25 C-8.6256898 196.40500963 -12.61916637 196.39693729 -16.875 196.375 C-17.6175 196.37886719 -18.36 196.38273438 -19.125 196.38671875 C-20.21941406 196.38478516 -20.21941406 196.38478516 -21.3359375 196.3828125 C-21.99126465 196.38168457 -22.6465918 196.38055664 -23.32177734 196.37939453 C-26.06888055 196.21620638 -28.78549725 195.70241712 -31.5 195.25 C-31.995 142.285 -31.995 142.285 -32.5 88.25 C-36.13 87.59 -39.76 86.93 -43.5 86.25 C-43.52683436 82.93744674 -43.5467578 79.62510817 -43.5625 76.3125 C-43.57087891 75.36697266 -43.57925781 74.42144531 -43.58789062 73.44726562 C-43.59111328 72.54814453 -43.59433594 71.64902344 -43.59765625 70.72265625 C-43.60289307 69.89000244 -43.60812988 69.05734863 -43.61352539 68.19946289 C-43.5 66.25 -43.5 66.25 -42.5 65.25 C-40.81816052 65.01712992 -39.1287584 64.83735834 -37.4375 64.6875 C-36.51839844 64.60371094 -35.59929688 64.51992188 -34.65234375 64.43359375 C-33.94207031 64.37300781 -33.23179687 64.31242188 -32.5 64.25 C-32.470271 63.09552368 -32.470271 63.09552368 -32.43994141 61.91772461 C-31.18798882 15.66118914 -31.18798882 15.66118914 -21.5 6.25 C-14.73638154 1.53696513 -8.15328117 -0.08597485 0 0 Z " fill="#AB9502" transform="translate(785.5,600.75)"/>
<path d="M0 0 C0.68578125 -0.00773438 1.3715625 -0.01546875 2.078125 -0.0234375 C6.42530835 -0.0068452 9.96113993 0.65969885 14 2.25 C15.01971283 6.50154463 15.19868804 10.57170719 15.25 14.9375 C15.270625 15.61361328 15.29125 16.28972656 15.3125 16.98632812 C15.328125 18.94921875 15.328125 18.94921875 15 22.25 C11.02344437 24.90103708 8.33648297 24.28645687 3.69140625 24.02734375 C0.49992401 24.29137058 -0.73434014 25.0256278 -3 27.25 C-4.17459948 30.77379845 -4.21007001 34.0206997 -4.28125 37.69140625 C-4.30886414 38.77662819 -4.30886414 38.77662819 -4.33703613 39.8837738 C-4.41564211 42.97729869 -4.48353159 46.07103699 -4.55224609 49.16479492 C-4.6039477 51.42377551 -4.66119638 53.68256842 -4.71875 55.94140625 C-4.73232544 56.64350723 -4.74590088 57.34560822 -4.7598877 58.06898499 C-4.88716922 63.02433844 -4.88716922 63.02433844 -6 65.25 C-5.14450562 65.24214478 -5.14450562 65.24214478 -4.27172852 65.23413086 C-1.70199677 65.21341779 0.86771747 65.2003581 3.4375 65.1875 C4.33533203 65.17912109 5.23316406 65.17074219 6.15820312 65.16210938 C7.01220703 65.15888672 7.86621094 65.15566406 8.74609375 65.15234375 C9.53685303 65.14710693 10.3276123 65.14187012 11.14233398 65.13647461 C13 65.25 13 65.25 14 66.25 C14.08651611 67.66570123 14.10704904 69.085595 14.09765625 70.50390625 C14.09443359 71.35791016 14.09121094 72.21191406 14.08789062 73.09179688 C14.07532227 74.43854492 14.07532227 74.43854492 14.0625 75.8125 C14.05798828 76.71419922 14.05347656 77.61589844 14.04882812 78.54492188 C14.03700225 80.78001314 14.0205222 83.01497437 14 85.25 C9 87.25 9 87.25 -4 88.25 C-4.33 123.23 -4.66 158.21 -5 194.25 C-8.63793817 196.06896908 -9.67469647 196.50094218 -13.44140625 196.48046875 C-14.27220703 196.47853516 -15.10300781 196.47660156 -15.95898438 196.47460938 C-17.24772461 196.45624023 -17.24772461 196.45624023 -18.5625 196.4375 C-19.42552734 196.43685547 -20.28855469 196.43621094 -21.17773438 196.43554688 C-27.57762277 196.39079241 -27.57762277 196.39079241 -31 195.25 C-31.33 159.61 -31.66 123.97 -32 87.25 C-35.63 86.92 -39.26 86.59 -43 86.25 C-44 85.25 -44 85.25 -44.11352539 83.48413086 C-44.10828857 82.73526611 -44.10305176 81.98640137 -44.09765625 81.21484375 C-44.09443359 80.40595703 -44.09121094 79.59707031 -44.08789062 78.76367188 C-44.07951172 77.91353516 -44.07113281 77.06339844 -44.0625 76.1875 C-44.05798828 75.33349609 -44.05347656 74.47949219 -44.04882812 73.59960938 C-44.03700373 71.48304337 -44.01906769 69.36651315 -44 67.25 C-40.93753253 65.46590198 -38.77920727 65.02119979 -35.25 65.125 C-34.45078125 65.14304687 -33.6515625 65.16109375 -32.828125 65.1796875 C-32.22484375 65.20289063 -31.6215625 65.22609375 -31 65.25 C-31.01047363 64.21705811 -31.02094727 63.18411621 -31.03173828 62.11987305 C-31.06831016 58.23774773 -31.09103387 54.35563719 -31.10986328 50.47338867 C-31.11983703 48.80246407 -31.1334209 47.13155653 -31.15087891 45.46069336 C-31.42560836 18.46448486 -31.42560836 18.46448486 -23 8.25 C-16.07054453 2.26265297 -9.13327907 -0.10300691 0 0 Z " fill="#A89306" transform="translate(718,600.75)"/>
<path d="M0 0 C8.58 0 17.16 0 26 0 C26.4375 8.5625 26.4375 8.5625 26.56811523 11.21704102 C26.6252771 12.28716431 26.6252771 12.28716431 26.68359375 13.37890625 C26.72025146 14.0963501 26.75690918 14.81379395 26.79467773 15.55297852 C26.96597579 18.0648099 26.96597579 18.0648099 27.50375366 20.76924133 C28.37572205 26.84853738 28.14781865 33.01176403 28.14526367 39.13916016 C28.14825946 40.5740823 28.15166296 42.00900365 28.15544128 43.44392395 C28.16425152 47.33116346 28.16661839 51.21838092 28.16725707 55.10562944 C28.16797027 57.54427217 28.1701099 59.98290939 28.17275429 62.42155075 C28.18200411 70.95909731 28.1860904 79.49662829 28.18530273 88.03417969 C28.18470489 95.94044688 28.19519966 103.84664519 28.2110464 111.752895 C28.22422555 118.57624107 28.2294822 125.39956497 28.22884732 132.22292364 C28.22859498 136.28178477 28.23129658 140.34058489 28.24202538 144.39943314 C28.28386083 161.36012988 28.13888997 178.14167682 26 195 C21.83884532 196.38705156 17.92034238 196.18424545 13.5625 196.1875 C12.70333984 196.19974609 11.84417969 196.21199219 10.95898438 196.22460938 C9.7127832 196.22750977 9.7127832 196.22750977 8.44140625 196.23046875 C7.68545166 196.23457764 6.92949707 196.23868652 6.15063477 196.24291992 C4 196 4 196 0 194 C0 129.98 0 65.96 0 0 Z " fill="#AB9502" transform="translate(931,601)"/>
<path d="M0 0 C0.75055664 0.17362061 1.50111328 0.34724121 2.27441406 0.52612305 C7.67524958 1.86274958 7.67524958 1.86274958 9.9375 4.125 C10.16455078 6.18798828 10.16455078 6.18798828 10.1328125 8.6953125 C10.12636719 9.59121094 10.11992188 10.48710938 10.11328125 11.41015625 C10.09652344 12.34730469 10.07976562 13.28445313 10.0625 14.25 C10.05347656 15.19488281 10.04445313 16.13976562 10.03515625 17.11328125 C10.01154522 19.45077292 9.97861516 21.78776123 9.9375 24.125 C6.9375 25.125 6.9375 25.125 4.21484375 24.203125 C0.47697832 22.97350538 -2.57232281 22.85891944 -6.5 22.875 C-7.75683594 22.86984375 -9.01367188 22.8646875 -10.30859375 22.859375 C-14.91806426 23.18553941 -19.3268552 23.72528645 -23 26.6875 C-24.68433787 30.55156924 -24.76812888 33.98713745 -24.0625 38.125 C-20.73790597 46.54088053 -12.80325069 52.80352268 -6.125 58.5625 C4.37160374 67.65536631 15.03139151 77.46242102 16.2734375 92.078125 C16.52068213 103.76347347 15.20541154 112.52496558 6.84765625 121.30859375 C-2.1883201 129.9010866 -10.56962256 132.57325396 -23.01074219 132.48535156 C-30.72239055 132.24767629 -38.22174885 130.80110459 -45.0625 127.125 C-45.11629226 124.16642591 -45.15607093 121.20882279 -45.1875 118.25 C-45.21263672 116.98736328 -45.21263672 116.98736328 -45.23828125 115.69921875 C-45.24472656 114.89355469 -45.25117187 114.08789062 -45.2578125 113.2578125 C-45.26828613 112.51418457 -45.27875977 111.77055664 -45.28955078 111.00439453 C-45.0625 109.125 -45.0625 109.125 -43.0625 107.125 C-41.07421875 107.11328125 -41.07421875 107.11328125 -38.75 107.4375 C-37.93789062 107.54578125 -37.12578125 107.6540625 -36.2890625 107.765625 C-34.72454477 108.01814365 -33.16918146 108.33115043 -31.625 108.6875 C-24.56893637 109.89219379 -18.3152841 109.77245739 -12.0625 106.125 C-9.427661 101.905697 -9.24866976 97.95474023 -10.0625 93.125 C-13.87987568 82.85003726 -23.37319276 76.00021229 -31.4375 69.08984375 C-40.24300518 61.53981099 -48.29417014 53.07024864 -50.0625 41.125 C-50.78824654 30.47606517 -49.97136077 20.6701699 -43.0625 12.125 C-30.89075215 -1.81005941 -17.58806228 -4.09684004 0 0 Z " fill="#A69209" transform="translate(1422.0625,665.875)"/>
<path d="M0 0 C1.61358398 -0.01836914 1.61358398 -0.01836914 3.25976562 -0.03710938 C4.28650391 -0.03904297 5.31324219 -0.04097656 6.37109375 -0.04296875 C7.79119751 -0.04913208 7.79119751 -0.04913208 9.23999023 -0.05541992 C11.5625 0.1875 11.5625 0.1875 13.5625 2.1875 C13.80859566 4.43261909 13.80859566 4.43261909 13.80300903 7.28738403 C13.80575836 8.36714508 13.80850769 9.44690613 13.81134033 10.55938721 C13.80414978 11.74909119 13.79695923 12.93879517 13.78955078 14.16455078 C13.78984283 15.41329987 13.79013489 16.66204895 13.79043579 17.94863892 C13.78927902 21.37825699 13.77923053 24.80763597 13.76528788 28.2372117 C13.75280758 31.81933803 13.75161216 35.40146735 13.74923706 38.98361206 C13.74301433 45.76927564 13.72659283 52.55487499 13.70653808 59.34051025 C13.68420371 67.06470534 13.67319186 74.78890346 13.66314721 82.5131228 C13.64222725 98.4046191 13.60703592 114.29605128 13.5625 130.1875 C9.93796571 131.99976714 5.67771368 131.37220181 1.6875 131.375 C0.77613281 131.38724609 -0.13523437 131.39949219 -1.07421875 131.41210938 C-1.95464844 131.41404297 -2.83507813 131.41597656 -3.7421875 131.41796875 C-4.54640137 131.42207764 -5.35061523 131.42618652 -6.17919922 131.43041992 C-8.67175238 131.16230204 -10.24094289 130.35123063 -12.4375 129.1875 C-12.46082882 112.51564548 -12.47847909 95.84379624 -12.48931217 79.17192936 C-12.49447517 71.43142718 -12.50151793 63.69093513 -12.51293945 55.95043945 C-12.52288619 49.20622849 -12.5293534 42.46202485 -12.53158849 35.71780676 C-12.53289562 32.14463134 -12.53598158 28.5714769 -12.54323006 24.99830818 C-12.55124372 21.01587649 -12.55149114 17.03346559 -12.55102539 13.05102539 C-12.55462067 11.85772614 -12.55821594 10.66442688 -12.56192017 9.43496704 C-12.5605455 8.35658066 -12.55917084 7.27819427 -12.55775452 6.16712952 C-12.55867631 5.22413529 -12.5595981 4.28114107 -12.56054783 3.30957127 C-12.24596525 -2.11569029 -4.10202063 0.00244897 0 0 Z " fill="#A4900C" transform="translate(1477.4375,665.8125)"/>
<path d="M0 0 C0.7425 -0.01224609 1.485 -0.02449219 2.25 -0.03710938 C6.76204669 -0.0490671 10.39320311 0.42534309 14.625 2.1875 C15.625 3.1875 15.625 3.1875 15.73852539 5.22875977 C15.73328857 6.10330811 15.72805176 6.97785645 15.72265625 7.87890625 C15.71943359 8.82314453 15.71621094 9.76738281 15.71289062 10.74023438 C15.70032227 12.23006836 15.70032227 12.23006836 15.6875 13.75 C15.68298828 14.74708984 15.67847656 15.74417969 15.67382812 16.77148438 C15.66200007 19.24354849 15.64551849 21.71549518 15.625 24.1875 C14.66078125 24.12949219 13.6965625 24.07148437 12.703125 24.01171875 C11.43984375 23.96660156 10.1765625 23.92148437 8.875 23.875 C7.62203125 23.81699219 6.3690625 23.75898437 5.078125 23.69921875 C1.48993966 23.85955888 1.48993966 23.85955888 -0.765625 26.51953125 C-3.40485469 30.89475911 -3.5100414 34.52254091 -3.47265625 39.48046875 C-3.47053383 40.53951164 -3.47053383 40.53951164 -3.46836853 41.61994934 C-3.46277764 43.87167626 -3.45022688 46.12330321 -3.4375 48.375 C-3.43248382 49.90299335 -3.42792112 51.43098827 -3.42382812 52.95898438 C-3.4136627 56.70189228 -3.39408569 60.44458443 -3.375 64.1875 C2.565 64.5175 8.505 64.8475 14.625 65.1875 C15.76341369 74.29480949 15.76341369 74.29480949 15.75 78.5 C15.75386719 79.73169922 15.75386719 79.73169922 15.7578125 80.98828125 C15.625 83.1875 15.625 83.1875 14.625 86.1875 C10.25697616 87.9305594 5.06391074 87.61733426 0.42578125 87.90625 C-2.2777875 87.87931513 -2.2777875 87.87931513 -3.375 89.1875 C-3.48246312 90.56579815 -3.52179331 91.94949051 -3.53321838 93.33192444 C-3.54790161 94.67183693 -3.54790161 94.67183693 -3.56288147 96.03881836 C-3.56863693 97.02640137 -3.5743924 98.01398438 -3.58032227 99.03149414 C-3.59022186 100.06551865 -3.60012146 101.09954315 -3.61032104 102.16490173 C-3.64204213 105.60079619 -3.66673524 109.03670451 -3.69140625 112.47265625 C-3.71196663 114.847777 -3.73296284 117.22289402 -3.75437927 119.5980072 C-3.80969461 125.86322005 -3.85906202 132.12846643 -3.90722656 138.39373779 C-3.95737268 144.78140259 -4.01309462 151.16901842 -4.06835938 157.55664062 C-4.17605661 170.10021834 -4.2776649 182.64383782 -4.375 195.1875 C-8.5006898 196.34250963 -12.49416637 196.33443729 -16.75 196.3125 C-17.4925 196.31636719 -18.235 196.32023438 -19 196.32421875 C-20.09441406 196.32228516 -20.09441406 196.32228516 -21.2109375 196.3203125 C-21.86626465 196.31918457 -22.5215918 196.31805664 -23.19677734 196.31689453 C-25.94388055 196.15370638 -28.66049725 195.63991712 -31.375 195.1875 C-31.87 142.2225 -31.87 142.2225 -32.375 88.1875 C-36.005 87.5275 -39.635 86.8675 -43.375 86.1875 C-43.375 79.5875 -43.375 72.9875 -43.375 66.1875 C-43.045 66.1875 -42.715 66.1875 -42.375 66.1875 C-42.375 72.4575 -42.375 78.7275 -42.375 85.1875 C-38.085 85.1875 -33.795 85.1875 -29.375 85.1875 C-29.375 121.1575 -29.375 157.1275 -29.375 194.1875 C-21.785 194.1875 -14.195 194.1875 -6.375 194.1875 C-6.375 158.2175 -6.375 122.2475 -6.375 85.1875 C0.225 85.1875 6.825 85.1875 13.625 85.1875 C13.625 78.9175 13.625 72.6475 13.625 66.1875 C7.025 66.1875 0.425 66.1875 -6.375 66.1875 C-6.46729208 61.49085852 -6.54678017 56.79741485 -6.59472656 52.10058594 C-6.61473053 50.50607592 -6.64194301 48.91163822 -6.67675781 47.31738281 C-7.03169714 30.6352345 -7.03169714 30.6352345 -2.375 24.1875 C-0.12221685 21.87087279 0.94194071 21.27687224 4.1328125 20.859375 C5.42832031 20.89804687 5.42832031 20.89804687 6.75 20.9375 C7.61882813 20.95296875 8.48765625 20.9684375 9.3828125 20.984375 C11.625 21.1875 11.625 21.1875 13.625 22.1875 C13.625 15.9175 13.625 9.6475 13.625 3.1875 C4.21707464 1.61951244 -4.94562732 1.90894099 -14.375 3.1875 C-10.44829592 -0.73920408 -5.2706232 0.00452803 0 0 Z " fill="#6A675A" transform="translate(785.375,600.8125)"/>
<path d="M0 0 C8.58 0 17.16 0 26 0 C26.4375 8.5625 26.4375 8.5625 26.56811523 11.21704102 C26.6252771 12.28716431 26.6252771 12.28716431 26.68359375 13.37890625 C26.72025146 14.0963501 26.75690918 14.81379395 26.79467773 15.55297852 C26.96597579 18.0648099 26.96597579 18.0648099 27.50375366 20.76924133 C28.37572205 26.84853738 28.14781865 33.01176403 28.14526367 39.13916016 C28.14825946 40.5740823 28.15166296 42.00900365 28.15544128 43.44392395 C28.16425152 47.33116346 28.16661839 51.21838092 28.16725707 55.10562944 C28.16797027 57.54427217 28.1701099 59.98290939 28.17275429 62.42155075 C28.18200411 70.95909731 28.1860904 79.49662829 28.18530273 88.03417969 C28.18470489 95.94044688 28.19519966 103.84664519 28.2110464 111.752895 C28.22422555 118.57624107 28.2294822 125.39956497 28.22884732 132.22292364 C28.22859498 136.28178477 28.23129658 140.34058489 28.24202538 144.39943314 C28.28386083 161.36012988 28.13888997 178.14167682 26 195 C21.83884532 196.38705156 17.92034238 196.18424545 13.5625 196.1875 C12.70333984 196.19974609 11.84417969 196.21199219 10.95898438 196.22460938 C9.7127832 196.22750977 9.7127832 196.22750977 8.44140625 196.23046875 C7.68545166 196.23457764 6.92949707 196.23868652 6.15063477 196.24291992 C4 196 4 196 0 194 C0 129.98 0 65.96 0 0 Z M1 1 C1 64.69 1 128.38 1 194 C8.92 194 16.84 194 25 194 C25 130.31 25 66.62 25 1 C17.08 1 9.16 1 1 1 Z " fill="#636260" transform="translate(931,601)"/>
<path d="M0 0 C4.79642058 2.39821029 7.60178971 5.20357942 10 10 C10.67662556 13.86969 10.38631648 17.10537237 8.8125 20.75 C6.31136766 23.85485394 3.57326648 26.21336676 0 28 C-5.34012755 28.3501723 -8.67913597 28.48069602 -13 25 C-16.78715237 21.42324499 -17.75375028 18.26048372 -18.09765625 13.2109375 C-17.94806533 9.82419915 -16.92524816 7.75952236 -15 5 C-10.1649329 0.63664677 -6.55290441 -0.86801532 0 0 Z " fill="#A3900D" transform="translate(1482,614)"/>
<path d="M0 0 C7.56507192 7.56507192 5.11476214 28.61088115 5.13894653 38.68093872 C5.13715479 40.06073033 5.13510336 41.44052163 5.1328125 42.8203125 C5.13348966 44.29556291 5.13446307 45.7708132 5.13571167 47.24606323 C5.13717209 50.31672238 5.13509001 53.38735213 5.13037109 56.45800781 C5.12470442 60.32703121 5.12802919 64.19598531 5.13382339 68.06500626 C5.15443861 84.40113658 5.03818823 100.68932978 4 117 C1.18580034 117.73937417 -1.27310432 118.12816752 -4.1875 118.1328125 C-4.96867187 118.13410156 -5.74984375 118.13539063 -6.5546875 118.13671875 C-7.76511719 118.13091797 -7.76511719 118.13091797 -9 118.125 C-9.80695313 118.12886719 -10.61390625 118.13273438 -11.4453125 118.13671875 C-12.22648437 118.13542969 -13.00765625 118.13414062 -13.8125 118.1328125 C-14.52019531 118.13168457 -15.22789063 118.13055664 -15.95703125 118.12939453 C-18.07919467 117.99498409 -19.94810076 117.53909512 -22 117 C-22.00808685 115.80698273 -22.01617371 114.61396545 -22.02450562 113.38479614 C-22.10215242 102.11525098 -22.18993797 90.8458238 -22.28752708 79.57643318 C-22.33737025 73.78340146 -22.38370109 67.99038693 -22.421875 62.19726562 C-22.45887942 56.60156096 -22.50527991 51.00600437 -22.55806351 45.41042709 C-22.57652714 43.28074631 -22.59166439 41.15103388 -22.60334396 39.02130508 C-22.62034448 36.02723432 -22.6494117 33.03349677 -22.68115234 30.03955078 C-22.68331253 29.1684819 -22.68547272 28.29741302 -22.68769836 27.39994812 C-22.76824946 21.41158993 -23.64526401 15.83012485 -25 10 C-22.48383639 12.18796836 -21.50835234 13.69990083 -21 17 C-20.91481256 18.41114643 -20.87795143 19.82572668 -20.87974548 21.23944092 C-20.87837082 22.07794083 -20.87699615 22.91644073 -20.87557983 23.78034973 C-20.87917511 24.69169174 -20.88277039 25.60303375 -20.88647461 26.54199219 C-20.88632858 27.50817978 -20.88618256 28.47436737 -20.8860321 29.46983337 C-20.88672856 32.66220345 -20.8945085 35.85451512 -20.90234375 39.046875 C-20.90420888 41.26076221 -20.90563233 43.47464983 -20.90663147 45.6885376 C-20.91044918 51.51480245 -20.92027313 57.34104236 -20.93133545 63.16729736 C-20.94156559 69.11283023 -20.94613253 75.05836712 -20.95117188 81.00390625 C-20.96189604 92.66928355 -20.97948683 104.3346358 -21 116 C-13.41 116 -5.82 116 2 116 C1.89178361 102.2043237 1.77964629 88.40869443 1.66066074 74.61310673 C1.60556304 68.20685043 1.55216454 61.80058947 1.50268555 55.39428711 C1.45484743 49.2086092 1.40249848 43.02298421 1.34705925 36.83736992 C1.32672353 34.48077149 1.30799644 32.1241586 1.29092598 29.76753426 C1.26668653 26.45963458 1.23666002 23.15183316 1.20532227 19.84399414 C1.19668907 18.39173683 1.19668907 18.39173683 1.18788147 16.91014099 C1.12667576 11.20346408 0.72168751 5.66226431 0 0 Z " fill="#716C54" transform="translate(1596,679)"/>
<path d="M0 0 C4.29 0 8.58 0 13 0 C13 35.97 13 71.94 13 109 C20.59 109 28.18 109 36 109 C36 73.03 36 37.06 36 0 C42.6 0 49.2 0 56 0 C52 2 52 2 39 3 C38.67 37.98 38.34 72.96 38 109 C34.36206183 110.81896908 33.32530353 111.25094218 29.55859375 111.23046875 C28.72779297 111.22853516 27.89699219 111.22660156 27.04101562 111.22460938 C26.18185547 111.21236328 25.32269531 111.20011719 24.4375 111.1875 C23.57447266 111.18685547 22.71144531 111.18621094 21.82226562 111.18554688 C15.42237723 111.14079241 15.42237723 111.14079241 12 110 C11.67 74.36 11.34 38.72 11 2 C7.37 1.67 3.74 1.34 0 1 C0 0.67 0 0.34 0 0 Z " fill="#706C55" transform="translate(675,686)"/>
<path d="M0 0 C7.93525854 0.39676293 13.02356632 5.77098774 18.25 11.25 C33.49497453 29.17999939 31.26966784 60.82611874 29.69140625 82.984375 C28.37881179 97.90790132 25.5352024 113.20409893 14.1875 123.875 C3.86884782 132.27252116 -8.19071549 133.09614904 -21 132 C-31.20061311 129.75003619 -38.91587438 124.42637116 -45 116 C-54.47973401 100.13061102 -54.56817323 82.12170029 -54.3125 64.25 C-54.30097627 62.15365476 -54.29120077 60.05729916 -54.28320312 57.9609375 C-54.26980052 55.9583222 -54.25488355 53.95571633 -54.23828125 51.953125 C-54.23089432 51.0260675 -54.22350739 50.09901001 -54.21589661 49.14385986 C-54.15414757 44.97903407 -54.04874239 41.05985226 -53 37 C-52.67 37 -52.34 37 -52 37 C-52.01571045 38.30445068 -52.0314209 39.60890137 -52.04760742 40.95288086 C-52.10263836 45.87501649 -52.13661134 50.79712603 -52.16479492 55.71948242 C-52.17971722 57.83443806 -52.20006237 59.94936368 -52.22631836 62.06420898 C-52.45765328 81.20150402 -52.62774108 103.67972124 -39.71875 119.2890625 C-32.24934462 126.72451604 -23.38005287 130.0872165 -12.9375 130.3125 C-1.15690044 129.93636336 7.82478219 126.5183091 16.3125 118.0625 C21.18838129 112.23114299 23.17759294 105.25960798 25 98 C25.18691406 97.34402832 25.37382813 96.68805664 25.56640625 96.01220703 C27.64154725 87.65093412 27.30048729 79.05345653 27.26074219 70.49755859 C27.25007928 67.77027871 27.26064963 65.04366537 27.2734375 62.31640625 C27.28805672 44.08873217 26.80723544 23.43719352 13.8125 9.25 C9.78614503 5.42852592 5.04677312 3.20352066 0 1 C0 0.67 0 0.34 0 0 Z " fill="#6D6957" transform="translate(1038,666)"/>
<path d="M0 0 C3.30153457 1.62180645 5.74890592 3.41873634 8.5625 5.75 C9.5525 5.75 10.5425 5.75 11.5625 5.75 C11.8925 4.1 12.2225 2.45 12.5625 0.75 C21.1425 0.75 29.7225 0.75 38.5625 0.75 C38.5625 43.65 38.5625 86.55 38.5625 130.75 C34.14959317 131.63258137 30.22672251 131.86484601 25.77734375 131.8125 C25.03923965 131.80871338 24.30113556 131.80492676 23.54066467 131.80102539 C21.1937156 131.7888619 18.84689252 131.77023391 16.5 131.75 C13.40495109 131.72337592 10.30996427 131.70339919 7.21484375 131.6875 C6.50746567 131.67920166 5.80008759 131.67090332 5.0712738 131.66235352 C1.72527657 131.64571471 -1.22543357 131.81426559 -4.4375 132.75 C-6.68657152 132.81790675 -8.93751605 132.83499984 -11.1875 132.8125 C-12.35796875 132.80347656 -13.5284375 132.79445313 -14.734375 132.78515625 C-15.62640625 132.77355469 -16.5184375 132.76195312 -17.4375 132.75 C-17.4375 132.42 -17.4375 132.09 -17.4375 131.75 C-16.40302734 131.71132813 -16.40302734 131.71132813 -15.34765625 131.671875 C-5.9075873 131.10210403 0.51832459 129.37837956 6.9375 122.1875 C8.14818867 120.71026054 9.35674942 119.23127277 10.5625 117.75 C11.5525 116.76 12.5425 115.77 13.5625 114.75 C13.5625 119.7 13.5625 124.65 13.5625 129.75 C21.4825 129.75 29.4025 129.75 37.5625 129.75 C37.5625 87.51 37.5625 45.27 37.5625 1.75 C29.6425 1.75 21.7225 1.75 13.5625 1.75 C13.5625 6.37 13.5625 10.99 13.5625 15.75 C10.87427759 13.06177759 8.63862534 10.61774042 6.3125 7.6875 C2.75520078 3.6743284 -0.09300703 1.56651976 -5.4375 0.75 C-10.45350743 0.53080455 -15.42143716 0.57365404 -20.4375 0.75 C-14.49522816 -2.80121484 -6.39265081 -2.22829542 0 0 Z " fill="#636260" transform="translate(861.4375,665.25)"/>
<path d="M0 0 C4.25253198 4.25253198 3.16193867 12.0614188 3.19287109 17.81835938 C3.20513733 19.10048309 3.20513733 19.10048309 3.21765137 20.4085083 C3.24233677 23.22024874 3.25898141 26.03193913 3.2734375 28.84375 C3.27876118 29.81153885 3.28408485 30.7793277 3.28956985 31.77644348 C3.3162333 36.90303756 3.33562649 42.02960792 3.35009766 47.15625 C3.36340463 51.37131605 3.39120767 55.58589432 3.43212891 59.80078125 C3.48179314 64.91826746 3.50625967 70.03531356 3.51332474 75.1530304 C3.51998181 77.08886023 3.53505638 79.0246824 3.55921555 80.96037292 C3.73200883 95.64706148 2.81600523 111.71168013 -8 123 C-17.39637822 130.4080661 -26.94874011 131.32483968 -38.5625 131.125 C-39.57119141 131.11597656 -40.57988281 131.10695313 -41.61914062 131.09765625 C-44.07968457 131.07433356 -46.53970896 131.04160763 -49 131 C-49 130.67 -49 130.34 -49 130 C-48.42668945 129.9906543 -47.85337891 129.98130859 -47.26269531 129.97167969 C-27.32095801 129.86620962 -27.32095801 129.86620962 -10 121 C-2.6931107 112.21369114 -0.55007492 102.72700321 -0.56762695 91.50146484 C-0.5574353 90.50514038 -0.54724365 89.50881592 -0.53674316 88.4822998 C-0.50681399 85.22512034 -0.49737798 81.96823592 -0.48828125 78.7109375 C-0.47141969 76.43835488 -0.45326747 74.1657815 -0.43388367 71.89321899 C-0.38653818 65.93885181 -0.35662891 59.98452212 -0.33044434 54.0300293 C-0.30056071 47.94312134 -0.25405725 41.85634233 -0.20898438 35.76953125 C-0.12312708 23.84642184 -0.05570378 11.92328577 0 0 Z " fill="#69675B" transform="translate(651,667)"/>
<path d="M0 0 C3.37868481 5.06802721 3.87602401 11.07959169 5 17 C5.21011719 18.05316406 5.42023438 19.10632813 5.63671875 20.19140625 C9.39602881 41.92075164 9.5707723 72.1570559 -2.52734375 91.43359375 C-8.72060003 99.98618576 -16.56616413 105.81245844 -27 108 C-38.4678608 109.26725709 -49.83808925 108.70226464 -59.70703125 102.22265625 C-72.02688355 92.30397456 -75.93395592 77.30088355 -77.78857422 62.22091675 C-78.14075204 58.52147373 -78.12260929 54.83820643 -78.09765625 51.125 C-78.0962413 50.31506592 -78.09482635 49.50513184 -78.09336853 48.6706543 C-78.08782383 46.11373006 -78.07528207 43.55689724 -78.0625 41 C-78.05747784 39.25390753 -78.05291619 37.50781366 -78.04882812 35.76171875 C-78.0378726 31.50777791 -78.02064694 27.25390439 -78 23 C-77.67 23 -77.34 23 -77 23 C-76.98541748 24.001521 -76.97083496 25.00304199 -76.95581055 26.03491211 C-76.89674822 29.83926812 -76.81955095 33.64309671 -76.73754883 37.44702148 C-76.70479637 39.07681563 -76.67661976 40.70670976 -76.65356445 42.33666992 C-76.39057987 60.46022466 -75.66384753 83.39826087 -62 97 C-52.76570743 104.77811566 -42.86139438 106.88517869 -31 106 C-20.80481441 104.9590005 -12.27313313 99.54673195 -5.75390625 91.75 C1.21590951 80.82182562 3.31382434 66.39126461 3.30078125 53.671875 C3.30720894 52.24467133 3.30720894 52.24467133 3.31376648 50.78863525 C3.31947056 48.78862294 3.32003926 46.7885899 3.31567383 44.78857422 C3.31252239 41.7714392 3.33599367 38.75529496 3.36132812 35.73828125 C3.39149234 26.07896371 3.14091088 17.13245071 0.64526367 7.75097656 C0.01399223 5.05965359 -0.11944688 2.75200568 0 0 Z " fill="#6B6859" transform="translate(1706,690)"/>
<path d="M0 0 C5.14974734 2.95633644 6.77587695 5.91958985 8.45703125 11.5234375 C9.83454409 17.80648169 10.15941277 23.90883444 10.16796875 30.30859375 C10.17129715 31.19297623 10.17462555 32.0773587 10.17805481 32.98854065 C10.18309873 34.85685714 10.18546392 36.72518257 10.18530273 38.59350586 C10.18746931 41.39778282 10.20559697 44.20165288 10.22460938 47.00585938 C10.33212554 80.67258101 10.33212554 80.67258101 2.55859375 89.66796875 C-0.87739253 92.60448835 -4.70532914 92.2961842 -9 92 C-12.79690127 90.58719953 -13.93882981 89.09262915 -16.1875 85.6875 C-21.48299576 73.80314466 -20.34249606 59.24216034 -20.31567383 46.52246094 C-20.31249899 43.37400115 -20.33610414 40.22647036 -20.36132812 37.078125 C-20.44692668 10.62006836 -20.44692668 10.62006836 -12.40234375 2.20703125 C-8.79208267 -0.90040795 -4.51976302 -0.64676744 0 0 Z M-13 5 C-16.51217013 11.15816316 -18.10710056 17.16599938 -18.16113281 24.24243164 C-18.17074036 25.26442154 -18.1803479 26.28641144 -18.19024658 27.33937073 C-18.19449646 28.43522995 -18.19874634 29.53108917 -18.203125 30.66015625 C-18.20882507 31.80101181 -18.21452515 32.94186737 -18.22039795 34.11729431 C-18.22983664 36.532207 -18.23637743 38.9471325 -18.24023438 41.36206055 C-18.24990054 45.02481126 -18.28091932 48.68699118 -18.3125 52.34960938 C-18.31903467 54.70312169 -18.32428331 57.056638 -18.328125 59.41015625 C-18.3404718 60.49184586 -18.3528186 61.57353546 -18.36553955 62.68800354 C-18.34155863 71.03075022 -17.82257302 80.69539481 -12.75 87.6875 C-9.32103002 90.57095203 -7.47127766 91.15688694 -3 91 C2.04059019 88.57663933 3.86552341 86.05993087 6 81 C9.3035324 68.7401896 9.29199319 55.73240556 9.3125 43.125 C9.31774185 42.09214371 9.31774185 42.09214371 9.3230896 41.03842163 C9.60869826 21.69898943 9.60869826 21.69898943 3 4 C-2.13386169 0.57742554 -8.41300532 0.79525488 -13 5 Z " fill="#6A675A" transform="translate(865,685)"/>
<path d="M0 0 C4.5923941 1.87870668 6.64568618 4.69728854 9 9 C11.92041514 18.2223636 12.15461785 27.78173384 12.1328125 37.390625 C12.13424759 38.81299469 12.13424759 38.81299469 12.13571167 40.26409912 C12.13638698 42.25061103 12.13457842 44.23712524 12.13037109 46.22363281 C12.12498951 49.25590966 12.13035049 52.28804003 12.13671875 55.3203125 C12.13605832 57.26041699 12.13477788 59.20052139 12.1328125 61.140625 C12.13483673 62.04073303 12.13686096 62.94084106 12.13894653 63.8682251 C12.12225382 68.35989776 11.9118853 72.57912211 11 77 C10.67 77 10.34 77 10 77 C10.01047363 75.7310791 10.02094727 74.4621582 10.03173828 73.15478516 C10.06848167 68.35745163 10.09109398 63.56012998 10.10986328 58.76269531 C10.11979906 56.70310359 10.1333523 54.64352549 10.15087891 52.58398438 C10.23606533 42.30148177 10.23217703 32.09948032 9.109375 21.8671875 C8.99083664 20.78517563 8.99083664 20.78517563 8.86990356 19.68130493 C8.22760686 14.52338344 7.26781908 9.18622575 4 5 C1.08143784 3.07276381 -1.04671242 2.737276 -4.5 3.0625 C-5.2528125 3.11535156 -6.005625 3.16820312 -6.78125 3.22265625 C-9.99941058 4.35014561 -11.0689257 6.22716309 -13 9 C-16.73468713 19.20114707 -16.46596064 30.24881644 -16.39111328 40.95678711 C-16.37512466 43.66637311 -16.39099367 46.37444523 -16.41015625 49.08398438 C-16.42168475 57.99541003 -16.00426244 66.70155065 -14.6640625 75.51953125 C-14.54783539 76.30156418 -14.43160828 77.08359711 -14.31185913 77.889328 C-13.4009331 83.2590576 -12.07261862 87.27281781 -7.75 90.875 C-4.03630199 92.39424009 -1.84345052 92.04821378 2 91 C6.32627843 87.99563998 7.39340035 83.81979895 9 79 C9.81571335 81.35241204 10.11686468 82.62646319 9.36328125 85.03515625 C5.50157729 92.48580442 5.50157729 92.48580442 2 94 C-2.20262173 94.55297654 -5.80712015 94.42413506 -9.8125 93 C-16.15835178 87.19807837 -17.65433635 78.23055952 -18.19915771 69.98635864 C-18.2954209 66.63659903 -18.3295116 63.29254173 -18.3359375 59.94140625 C-18.3425943 58.71646957 -18.3492511 57.4915329 -18.35610962 56.22947693 C-18.36618585 53.65194184 -18.37092821 51.07438093 -18.37060547 48.49682617 C-18.37498322 44.57752176 -18.41137199 40.65934045 -18.44921875 36.74023438 C-18.4550872 34.22396214 -18.4590564 31.70768462 -18.4609375 29.19140625 C-18.47530853 28.03274551 -18.48967957 26.87408478 -18.50448608 25.68031311 C-18.46036761 17.73548664 -17.52267814 9.81574281 -12.69418335 3.21485901 C-8.68285907 -0.68029513 -5.2261409 -0.66363694 0 0 Z " fill="#6A675A" transform="translate(1029,685)"/>
<path d="M0 0 C0.33 0 0.66 0 1 0 C1 6.27 1 12.54 1 19 C5.29 19 9.58 19 14 19 C14 54.97 14 90.94 14 128 C21.59 128 29.18 128 37 128 C35 130 35 130 31.296875 130.23046875 C29.78118759 130.22647309 28.26549952 130.21169705 26.75 130.1875 C25.99847656 130.18685547 25.24695313 130.18621094 24.47265625 130.18554688 C20.10868921 130.15127488 16.38900889 129.73150148 12 129 C11.505 76.035 11.505 76.035 11 22 C7.37 21.34 3.74 20.68 0 20 C0 13.4 0 6.8 0 0 Z " fill="#736D52" transform="translate(742,667)"/>
<path d="M0 0 C0.33 0 0.66 0 1 0 C1.00586624 1.15765366 1.01173248 2.31530731 1.01777649 3.50804138 C1.07509022 14.43946867 1.1478971 25.37069869 1.23571491 36.30192471 C1.28036494 41.92123914 1.319633 47.54048196 1.34643555 53.15991211 C1.3725219 58.58708944 1.41296227 64.01399043 1.46318626 69.44099617 C1.4798189 71.50729995 1.49135554 73.57365149 1.49761391 75.64001274 C1.50729417 78.54342212 1.53540045 81.44613022 1.56762695 84.34936523 C1.56619186 85.19597717 1.56475677 86.04258911 1.5632782 86.91485596 C1.66806204 93.62821774 2.92506849 99.80779767 6.625 105.5 C10.25998962 107.79578292 13.74189401 108.17002854 18 108 C22.39197348 106.69867452 23.60485951 105.72215331 25.8125 101.6875 C27.84609727 95.37264533 28.16023694 89.4434499 28.20532227 82.87353516 C28.22017166 81.52622818 28.22017166 81.52622818 28.23532104 80.15170288 C28.26678313 77.19751578 28.29163275 74.24331262 28.31640625 71.2890625 C28.33698899 69.23497105 28.35798581 67.18088371 28.37937927 65.12680054 C28.43446358 59.73133685 28.48393282 54.33583579 28.53222656 48.94030762 C28.58254141 43.4302235 28.63817528 37.92019337 28.69335938 32.41015625 C28.80077401 21.60681699 28.90225581 10.80343078 29 0 C29.33 0 29.66 0 30 0 C30.09293151 12.19641804 30.16388234 24.39275098 30.20724869 36.58945179 C30.22806882 42.25369135 30.25628443 47.91768756 30.30175781 53.58178711 C30.34541455 59.05423543 30.36917898 64.52645057 30.37950897 69.99905968 C30.38686484 72.08052932 30.40122868 74.16198709 30.42292023 76.2433567 C30.67268457 101.21606103 30.67268457 101.21606103 23.375 108.6875 C17.52423318 110.96279821 12.41594164 111.02901218 6.625 108.5625 C2.06193406 104.10807849 -0.15585282 98.60245215 -0.48101807 92.23521423 C-0.49243553 90.51481552 -0.48238491 88.79417871 -0.45410156 87.07397461 C-0.45468567 86.12656403 -0.45526978 85.17915344 -0.45587158 84.20303345 C-0.45310692 81.10241782 -0.4220917 78.00278936 -0.390625 74.90234375 C-0.38315686 72.74044825 -0.37746664 70.57854595 -0.37347412 68.41664124 C-0.35826304 62.74973587 -0.31902017 57.08324605 -0.2746582 51.41650391 C-0.23360775 45.62473165 -0.21544226 39.83289169 -0.1953125 34.04101562 C-0.15252158 22.69382869 -0.08432519 11.34694901 0 0 Z " fill="#716C54" transform="translate(598,667)"/>
<path d="M0 0 C3 1 3 1 4.53515625 3.4765625 C5.03917969 4.51554688 5.54320312 5.55453125 6.0625 6.625 C6.56910156 7.64851562 7.07570313 8.67203125 7.59765625 9.7265625 C10.28641158 16.00282146 11.3759952 21.81444527 11.6875 28.5625 C11.72512451 29.34898926 11.76274902 30.13547852 11.80151367 30.94580078 C12.47460366 47.67980132 10.67490057 62.18456741 -1 75 C-10.63799704 83.50922261 -22.94311493 85.16704223 -35.3828125 85.1328125 C-36.54875443 85.13424759 -36.54875443 85.13424759 -37.73825073 85.13571167 C-39.37026043 85.13638811 -41.00227291 85.13457146 -42.63427734 85.13037109 C-45.124736 85.12500057 -47.61501552 85.13034178 -50.10546875 85.13671875 C-51.69791706 85.13605816 -53.29036526 85.13477739 -54.8828125 85.1328125 C-55.62250275 85.13483673 -56.36219299 85.13686096 -57.1242981 85.13894653 C-60.87465421 85.12200452 -64.35356234 84.89977033 -68 84 C-68 83.67 -68 83.34 -68 83 C-66.76548096 82.98541748 -65.53096191 82.97083496 -64.2590332 82.95581055 C-59.61992349 82.8972494 -54.98127027 82.82002705 -50.3425293 82.73754883 C-48.34586063 82.70456864 -46.34910474 82.67645572 -44.35229492 82.65356445 C-20.83401395 82.65058284 -20.83401395 82.65058284 -1.0703125 71.13671875 C9.57772599 59.00343884 10.02489075 43.98862588 9.19628906 28.67773438 C8.41118197 17.96746748 5.84041383 9.09138852 0 0 Z " fill="#67655D" transform="translate(535,712)"/>
<path d="M0 0 C2.5 1 2.5 1 4 2 C2 3 2 3 -1.3125 2.4375 C-5.1995535 1.97632416 -6.71452875 1.95768004 -10 4 C-18.19862499 12.90136428 -16.3143966 28.0627391 -16.26074219 39.37866211 C-16.25011696 42.03327808 -16.26063834 44.68720269 -16.2734375 47.34179688 C-16.28194248 56.07550454 -16.00978058 64.73722179 -15.171875 73.43359375 C-15.10276917 74.20864761 -15.03366333 74.98370148 -14.96246338 75.78224182 C-14.37567876 81.17199615 -12.86504848 85.29567971 -9.75 89.8125 C-6.88381781 91.75740934 -4.421972 91.88400095 -1 92 C3.06205925 90.75013562 4.55766696 89.83061542 6.56640625 86.05859375 C8.50382419 81.2281988 9.0453971 76.19581444 9.6875 71.0625 C9.81705078 70.09248047 9.94660156 69.12246094 10.08007812 68.12304688 C10.39574112 65.74972877 10.70213143 63.37560559 11 61 C11.33 61 11.66 61 12 61 C12.44702571 72.22531227 11.8454339 84.07207834 4.3125 93 C-0.31398456 95.00064197 -5.12574347 94.66640232 -9.8125 93 C-16.15835178 87.19807837 -17.65433635 78.23055952 -18.19915771 69.98635864 C-18.2954209 66.63659903 -18.3295116 63.29254173 -18.3359375 59.94140625 C-18.3425943 58.71646957 -18.3492511 57.4915329 -18.35610962 56.22947693 C-18.36618585 53.65194184 -18.37092821 51.07438093 -18.37060547 48.49682617 C-18.37498322 44.57752176 -18.41137199 40.65934045 -18.44921875 36.74023438 C-18.4550872 34.22396214 -18.4590564 31.70768462 -18.4609375 29.19140625 C-18.47530853 28.03274551 -18.48967957 26.87408478 -18.50448608 25.68031311 C-18.46036761 17.73548664 -17.52267814 9.81574281 -12.69418335 3.21485901 C-8.69046827 -0.67290629 -5.21524343 -0.58881781 0 0 Z " fill="#6A675A" transform="translate(1673,685)"/>
<path d="M0 0 C8.03483271 0 13.10128107 1.62686674 19.875 5.75 C27.54652604 13.87279227 27.20366917 24.32566455 27.3125 34.875 C27.34150391 35.80441406 27.37050781 36.73382812 27.40039062 37.69140625 C27.47374551 45.78301443 25.86053048 52.79893018 20.375 58.9375 C13.60152046 63.07684861 7.93948456 64 0 64 C0 42.88 0 21.76 0 0 Z M1 3 C0.90618698 4.84118029 0.88256046 6.68597641 0.88647461 8.52954102 C0.88655014 9.71068985 0.88662567 10.89183868 0.88670349 12.10877991 C0.89186478 13.3941716 0.89702606 14.67956329 0.90234375 16.00390625 C0.9037587 17.31205795 0.90517365 18.62020966 0.90663147 19.96800232 C0.9104559 23.45162859 0.92028554 26.93521339 0.93133545 30.41882324 C0.94155118 33.97126708 0.94612944 37.52371759 0.95117188 41.07617188 C0.96190788 48.05079832 0.9789834 55.02539717 1 62 C5.97355532 63.65785177 10.5095496 62.08356438 15.2265625 60.03125 C20.46229359 57.129047 23.17575172 53.69948755 25 48 C27.69543896 35.28259335 26.82231358 21.40908987 21.4375 9.5625 C17.51448495 5.43830469 12.50966688 2.55548684 6.828125 1.65625 C3.6321904 1.48145331 3.6321904 1.48145331 1 3 Z " fill="#67655D" transform="translate(492,711)"/>
<path d="M0 0 C0.33 0 0.66 0 1 0 C1 4.95 1 9.9 1 15 C8.92 15 16.84 15 25 15 C20.70259616 17.14870192 17.73415936 17.24543631 13.09375 17.16015625 C12.33203491 17.15495468 11.57031982 17.14975311 10.78552246 17.14439392 C8.35681868 17.12661996 5.92854142 17.09546118 3.5 17.0625 C1.07150024 17.03483233 -1.35693742 17.01011711 -3.78552246 16.99131775 C-5.29477373 16.97911579 -6.8039937 16.96156663 -8.31311035 16.93800354 C-11.71680248 16.90567076 -14.73537011 17.02023165 -18 18 C-19.91561254 18.06688591 -21.83335592 18.08531719 -23.75 18.0625 C-24.73484375 18.05347656 -25.7196875 18.04445313 -26.734375 18.03515625 C-27.48203125 18.02355469 -28.2296875 18.01195312 -29 18 C-29 17.67 -29 17.34 -29 17 C-28.13117188 16.89042969 -27.26234375 16.78085937 -26.3671875 16.66796875 C-14.6719866 15.05889749 -9.38936033 12.1867723 -2 3 C-1.34 2.01 -0.68 1.02 0 0 Z " fill="#646360" transform="translate(1314,780)"/>
<path d="M0 0 C6.27 0 12.54 0 19 0 C15 2 15 2 2 3 C1.67 37.98 1.34 72.96 1 109 C0.67 109 0.34 109 0 109 C0 73.03 0 37.06 0 0 Z " fill="#616162" transform="translate(712,686)"/>
<path d="M0 0 C4.29 0 8.58 0 13 0 C13 35.97 13 71.94 13 109 C12.67 109 12.34 109 12 109 C11.505 56.035 11.505 56.035 11 2 C7.37 1.67 3.74 1.34 0 1 C0 0.67 0 0.34 0 0 Z " fill="#837843" transform="translate(675,686)"/>
<path d="M0 0 C-4.92212875 1.60748002 -10.06962408 0.96891749 -15.17578125 0.83984375 C-19.8460053 1.03543025 -24.21978761 1.56434485 -27.9375 4.5625 C-30.08404952 9.48693713 -29.42092609 14.50045082 -28 19.5625 C-27.67 20.366875 -27.34 21.17125 -27 22 C-30.78851989 18.72809646 -31.83854002 15.4800498 -32.375 10.5625 C-31.91492421 6.19178 -30.87142436 4.31318195 -28 1 C-19.36644184 -5.69541245 -9.66215872 -3.52113376 0 0 Z " fill="#65645E" transform="translate(1427,688)"/>
<path d="M0 0 C0.33 0 0.66 0 1 0 C1 12.87 1 25.74 1 39 C-3.29 39 -7.58 39 -12 39 C-12 38.67 -12 38.34 -12 38 C-7.05 37.505 -7.05 37.505 -2 37 C-1.97494385 36.19892822 -1.9498877 35.39785645 -1.92407227 34.57250977 C-1.80720265 30.90237974 -1.68489255 27.23244983 -1.5625 23.5625 C-1.52318359 22.30244141 -1.48386719 21.04238281 -1.44335938 19.74414062 C-1.21821306 13.11098393 -0.85241566 6.5829411 0 0 Z " fill="#726C53" transform="translate(755,628)"/>
<path d="M0 0 C0.33 0 0.66 0 1 0 C1.49571448 5.9485738 0.38534017 10.03930352 -3 15 C-6.09289717 17.91096205 -8.82559761 18.23406255 -12.9375 18.4375 C-17.72886944 18.25239509 -20.47421683 17.44183595 -24 14 C-25.71267124 11.11604904 -27.13295141 8.24694749 -28 5 C-27.67 4.01 -27.34 3.02 -27 2 C-26.67 2 -26.34 2 -26 2 C-25.82984375 2.60328125 -25.6596875 3.2065625 -25.484375 3.828125 C-23.64629702 10.3624691 -23.64629702 10.3624691 -19 15 C-14.5622578 16.21106323 -11.0451896 16.30968581 -6.625 15 C-2.3234513 11.72262956 -1.3444631 7.72231549 -0.3125 2.5625 C-0.209375 1.716875 -0.10625 0.87125 0 0 Z " fill="#6A675A" transform="translate(626,759)"/>
<path d="M0 0 C2.10478604 0.11409682 4.20884577 0.24165361 6.3125 0.375 C7.48425781 0.44460938 8.65601563 0.51421875 9.86328125 0.5859375 C13 1 13 1 16 3 C16.34057617 5.24658203 16.34057617 5.24658203 16.29296875 8.0078125 C16.28330078 8.99394531 16.27363281 9.98007812 16.26367188 10.99609375 C16.23853516 12.02863281 16.21339844 13.06117188 16.1875 14.125 C16.16719727 15.68541016 16.16719727 15.68541016 16.14648438 17.27734375 C16.11105228 19.85207627 16.06165221 22.4257833 16 25 C13 26 13 26 10.8125 25.0625 C9.9153125 24.5365625 9.9153125 24.5365625 9 24 C10.65 24 12.3 24 14 24 C14 17.07 14 10.14 14 3 C9.38 2.34 4.76 1.68 0 1 C0 0.67 0 0.34 0 0 Z " fill="#7E7542" transform="translate(1216,604)"/>
<path d="M0 0 C0.33 0 0.66 0 1 0 C1 4.62 1 9.24 1 14 C-1.4167527 11.5832473 -3.53568938 9.43424785 -5.625 6.8125 C-7.69169295 3.98963873 -7.69169295 3.98963873 -10 3 C-9.67 2.34 -9.34 1.68 -9 1 C-7.515 1.99 -7.515 1.99 -6 3 C-2.87478167 3.16699232 -2.87478167 3.16699232 0 3 C0 2.01 0 1.02 0 0 Z " fill="#64635F" transform="translate(1314,667)"/>
<path d="M0 0 C0.66 0.33 1.32 0.66 2 1 C1.33613281 1.36351562 0.67226562 1.72703125 -0.01171875 2.1015625 C-5.46053755 5.2038097 -9.27936718 7.95914263 -13 13 C-13.33 13 -13.66 13 -14 13 C-14 9.04 -14 5.08 -14 1 C-13.67 1.99 -13.34 2.98 -13 4 C-7.98369492 3.49836949 -4.45979013 2.28175309 0 0 Z " fill="#6A675A" transform="translate(1559,666)"/>
<path d="M0 0 C0.66 0.33 1.32 0.66 2 1 C1.24203125 1.70962891 1.24203125 1.70962891 0.46875 2.43359375 C-2.98835206 5.95242978 -5.50185911 8.52250194 -5.5625 13.625 C-5.263735 17.29281712 -4.40083705 20.5854597 -3 24 C-6.78851989 20.72809646 -7.83854002 17.4800498 -8.375 12.5625 C-7.83141873 7.39847791 -5.69837776 4.4153148 -1.75 1.125 C-1.1725 0.75375 -0.595 0.3825 0 0 Z " fill="#6D6958" transform="translate(1403,686)"/>
<path d="M0 0 C0.66 0.33 1.32 0.66 2 1 C-3.61 6.61 -9.22 12.22 -15 18 C-15 13.74508832 -12.52840258 11.92686684 -9.75 9 C-9.25886719 8.46632813 -8.76773437 7.93265625 -8.26171875 7.3828125 C-5.68642506 4.62209767 -3.11691202 2.1373111 0 0 Z " fill="#8F812C" transform="translate(1182,611)"/>
<path d="M0 0 C0.33 0 0.66 0 1 0 C1 6.27 1 12.54 1 19 C4.96 19 8.92 19 13 19 C12.67 20.32 12.34 21.64 12 23 C11.13375 22.690625 10.2675 22.38125 9.375 22.0625 C5.6146857 20.79252074 5.6146857 20.79252074 0 20 C0 13.4 0 6.8 0 0 Z " fill="#706C55" transform="translate(742,667)"/>
<path d="M0 0 C0.99 0.33 1.98 0.66 3 1 C1.33333333 2.66666667 -0.33333333 4.33333333 -2 6 C-2.556875 6.598125 -3.11375 7.19625 -3.6875 7.8125 C-5 9 -5 9 -7 9 C-7.66 10.98 -8.32 12.96 -9 15 C-10 12 -10 12 -8.92578125 9.84375 C-8.12720703 8.68359375 -8.12720703 8.68359375 -7.3125 7.5 C-6.53326172 6.33984375 -6.53326172 6.33984375 -5.73828125 5.15625 C-3.96740481 2.95956731 -2.43762257 1.42314848 0 0 Z " fill="#7A7246" transform="translate(768,604)"/>
<path d="M0 0 C0.66 0.33 1.32 0.66 2 1 C2 1.66 2 2.32 2 3 C4.46326712 4.6446674 4.46326712 4.6446674 7 6 C6.01 6.495 6.01 6.495 5 7 C2.8359375 6.22265625 2.8359375 6.22265625 0.375 5.0625 C-0.44226563 4.68222656 -1.25953125 4.30195312 -2.1015625 3.91015625 C-2.72804688 3.60980469 -3.35453125 3.30945313 -4 3 C-2.68 2.01 -1.36 1.02 0 0 Z " fill="#6D6957" transform="translate(521,699)"/>
<path d="M0 0 C0.66 0.33 1.32 0.66 2 1 C-0.97 3.97 -3.94 6.94 -7 10 C-7 6.04435836 -5.59478606 4.89133304 -3 2 C-2.01 1.34 -1.02 0.68 0 0 Z " fill="#8E802F" transform="translate(700,605)"/>
<path d="M0 0 C-1.39332574 3.36720387 -2.9789286 4.9859524 -6 7 C-5.37162381 3.35541809 -4.14650034 0 0 0 Z " fill="#918229" transform="translate(1472,616)"/>
</svg>
